<svg width="361" height="329" viewBox="0 0 361 329" fill="none" xmlns="http://www.w3.org/2000/svg">
<path d="M294.721 69.906C279.048 54.6811 260.255 42.8278 239.561 35.1152C218.868 27.4027 196.736 24.0034 174.602 25.1379C152.468 26.2724 130.827 31.9154 111.084 41.7006C91.3408 51.4858 73.9361 65.1946 59.9998 81.9371C46.0635 98.6797 35.907 118.082 30.1894 138.884C24.4719 159.687 23.3211 181.425 26.8117 202.687C30.3024 223.95 38.3565 244.262 50.4513 262.305C62.5461 280.348 78.4113 295.719 97.0172 307.42L182.932 178.501L294.721 69.906Z" fill="#F04A24"/>
<path d="M80.5602 318.383C60.6972 304.52 44.0025 286.689 31.5597 266.046C19.1168 245.404 11.2037 222.411 8.33383 198.561C5.46392 174.711 7.70126 150.535 14.9007 127.604C22.1001 104.673 34.1008 83.4988 50.1241 65.4549C66.1475 47.4111 85.8353 32.9012 107.91 22.8674C129.985 12.8335 153.953 7.49997 178.259 7.21305C202.565 6.92613 226.665 11.6923 248.996 21.202C271.326 30.7117 291.388 44.7525 307.878 62.4127" stroke="#F04A24" stroke-width="0.694915"/>
<circle cx="190.229" cy="186.145" r="142.458" fill="#FBBF91"/>
<path fill-rule="evenodd" clip-rule="evenodd" d="M293.861 45.1104L294.876 50.9379L293.524 51.1127L292.408 44.7026C292.381 44.548 292.426 44.3906 292.534 44.265C292.642 44.1393 292.803 44.0557 292.982 44.0325L300.421 43.0707L300.623 44.236L293.861 45.1104Z" fill="#F04A24"/>
<path fill-rule="evenodd" clip-rule="evenodd" d="M190.365 6.921L194.858 11.3633L193.827 12.1375L188.885 7.25107C188.766 7.13326 188.706 6.9795 188.718 6.82362C188.731 6.66773 188.815 6.52247 188.951 6.41979L194.621 2.16095L195.52 3.04929L190.365 6.921Z" fill="#F04A24"/>
<path fill-rule="evenodd" clip-rule="evenodd" d="M18.5228 107.971L24.727 105.494L25.3018 106.563L18.4773 109.288C18.3127 109.354 18.1247 109.361 17.9545 109.307C17.7842 109.253 17.6458 109.143 17.5695 109.001L14.4075 103.12L15.6482 102.625L18.5228 107.971Z" fill="#F04A24"/>
</svg>
