<svg width="340" height="336" viewBox="0 0 340 336" fill="none" xmlns="http://www.w3.org/2000/svg">
<circle cx="170.066" cy="227.983" r="107.937" fill="#F2D4B1"/>
<path d="M289.992 49.4128C305.75 64.981 318.249 83.4629 326.776 103.803C335.304 124.144 339.693 145.944 339.693 167.96C339.693 189.976 335.304 211.776 326.776 232.117C318.249 252.457 305.75 270.939 289.992 286.507C274.235 302.075 255.528 314.425 234.94 322.85C214.352 331.276 192.285 335.613 170 335.613C147.715 335.613 125.649 331.276 105.06 322.85C84.4718 314.425 65.765 302.075 50.0077 286.507C34.2505 270.939 21.7513 252.457 13.2238 232.117C4.69619 211.776 0.307161 189.976 0.30716 167.96C0.307159 145.944 4.69619 124.144 13.2238 103.803C21.7513 83.4629 34.2505 64.981 50.0077 49.4128C65.765 33.8447 84.4718 21.4951 105.06 13.0695C125.649 4.64383 147.715 0.30716 170 0.30716C192.285 0.30716 214.351 4.64383 234.94 13.0695C255.528 21.4951 274.235 33.8447 289.992 49.4128L289.992 49.4128Z" stroke="#F04A24" stroke-width="0.61432"/>
</svg>
