<svg width="39" height="39" viewBox="0 0 39 39" fill="none" xmlns="http://www.w3.org/2000/svg">
<path d="M1.94507 17.5053C1.94507 10.1705 1.94507 6.5021 4.22468 4.22443C6.50429 1.94677 10.1707 1.94482 17.5055 1.94482H21.3957C28.7305 1.94482 32.3989 1.94482 34.6765 4.22443C36.9542 6.50404 36.9561 10.1705 36.9561 17.5053V21.3954C36.9561 28.7302 36.9561 32.3986 34.6765 34.6763C32.3969 36.9539 28.7305 36.9559 21.3957 36.9559H17.5055C10.1707 36.9559 6.50234 36.9559 4.22468 34.6763C1.94701 32.3967 1.94507 28.7302 1.94507 21.3954V17.5053Z" stroke="white" stroke-width="3.89012"/>
<path d="M28.2035 13.615C29.8148 13.615 31.1211 12.3087 31.1211 10.6974C31.1211 9.08603 29.8148 7.77979 28.2035 7.77979C26.5921 7.77979 25.2859 9.08603 25.2859 10.6974C25.2859 12.3087 26.5921 13.615 28.2035 13.615Z" fill="white"/>
<path d="M19.4507 25.2856C22.6733 25.2856 25.2858 22.6731 25.2858 19.4504C25.2858 16.2277 22.6733 13.6152 19.4507 13.6152C16.228 13.6152 13.6155 16.2277 13.6155 19.4504C13.6155 22.6731 16.228 25.2856 19.4507 25.2856Z" stroke="white" stroke-width="3.89012"/>
</svg>
