<svg width="43" height="43" viewBox="0 0 43 43" fill="none" xmlns="http://www.w3.org/2000/svg">
<path d="M21.0066 0C9.40485 0 0 9.40485 0 21.0066C0 32.6084 9.40485 42.0133 21.0066 42.0133C32.6084 42.0133 42.0133 32.6084 42.0133 21.0066C42.0133 9.40485 32.6084 0 21.0066 0ZM15.8644 29.7135H11.6105V16.0241H15.8644V29.7135ZM13.7112 14.3436C12.3677 14.3436 11.4989 13.3917 11.4989 12.2145C11.4989 11.0132 12.3939 10.0898 13.7659 10.0898C15.1379 10.0898 15.9782 11.0132 16.0044 12.2145C16.0044 13.3917 15.1379 14.3436 13.7112 14.3436ZM31.4005 29.7135H27.1467V22.127C27.1467 20.3611 26.5296 19.162 24.9913 19.162C23.8163 19.162 23.1182 19.9738 22.8097 20.755C22.6959 21.0329 22.6675 21.4268 22.6675 21.8185V29.7113H18.4114V20.3896C18.4114 18.6806 18.3567 17.2517 18.2998 16.0219H21.9957L22.1905 17.9235H22.2758C22.836 17.0307 24.208 15.7134 26.5034 15.7134C29.3021 15.7134 31.4005 17.5887 31.4005 21.6193V29.7135Z" fill="white"/>
</svg>
